<svg xmlns="http://www.w3.org/2000/svg" xmlns:xlink="http://www.w3.org/1999/xlink" width="106" height="88" viewBox="0 0 106 88">
  <defs>
    <filter id="Path_6219" x="0" y="0" width="106" height="88" filterUnits="userSpaceOnUse">
      <feOffset dy="3" input="SourceAlpha"/>
      <feGaussianBlur stdDeviation="3" result="blur"/>
      <feFlood flood-opacity="0.161"/>
      <feComposite operator="in" in2="blur"/>
      <feComposite in="SourceGraphic"/>
    </filter>
  </defs>
  <g id="Group_7414" data-name="Group 7414" transform="translate(-597 -768)">
    <g transform="matrix(1, 0, 0, 1, 597, 768)" filter="url(#Path_6219)">
      <g id="Path_6219-2" data-name="Path 6219" transform="translate(9 6)" fill="#0c5406">
        <path d="M 66 69.5 L 22 69.5 C 18.24471092224121 69.5 14.60592269897461 68.51955413818359 11.18471145629883 66.58591461181641 C 8.039199829101562 64.81143188476562 5.378833293914795 62.18215560913086 3.490877866744995 58.98213195800781 C 1.534233331680298 55.66566848754883 0.5 51.86811065673828 0.5 48 L 0.5 22 C 0.5 19.09729957580566 1.068388938903809 16.28168869018555 2.189366579055786 13.63137817382812 C 3.272222280502319 11.07123374938965 4.822522163391113 8.771888732910156 6.797200202941895 6.797200202941895 C 8.771888732910156 4.822522163391113 11.07123374938965 3.272222280502319 13.63137817382812 2.189366579055786 C 16.28168869018555 1.068388938903809 19.09729957580566 0.5 22 0.5 L 66 0.5 C 68.90270233154297 0.5 71.71830749511719 1.068388938903809 74.36862182617188 2.189366579055786 C 76.92876434326172 3.272222280502319 79.22811126708984 4.822522163391113 81.20279693603516 6.797200202941895 C 83.17747497558594 8.771888732910156 84.72777557373047 11.07123374938965 85.81063079833984 13.63137817382812 C 86.93161010742188 16.28168869018555 87.5 19.09729957580566 87.5 22 L 87.5 48 C 87.5 50.9026985168457 86.93161010742188 53.71831130981445 85.81063079833984 56.36862182617188 C 84.72777557373047 58.92876815795898 83.17747497558594 61.22811126708984 81.20279693603516 63.20280075073242 C 79.22811126708984 65.17747497558594 76.92876434326172 66.72777557373047 74.36862182617188 67.81063079833984 C 71.71830749511719 68.93161010742188 68.90270233154297 69.5 66 69.5 Z" stroke="none"/>
        <path d="M 22 1 C 19.16457366943359 1 16.41449737548828 1.555091857910156 13.82615661621094 2.649871826171875 C 11.32561492919922 3.70751953125 9.079681396484375 5.221832275390625 7.150749206542969 7.150753021240234 C 5.221832275390625 9.079681396484375 3.70751953125 11.32561111450195 2.649871826171875 13.82615280151367 C 1.555091857910156 16.41449356079102 1 19.16457748413086 1 22 L 1 48 C 1 51.77880096435547 2.010246276855469 55.48850631713867 3.921516418457031 58.72805786132812 C 5.764884948730469 61.85250473022461 8.361282348632812 64.41904449462891 11.43073272705078 66.15061187744141 C 14.77596282958984 68.04132843017578 18.33197784423828 69 22 69 L 66 69 C 68.83542633056641 69 71.58551025390625 68.44490814208984 74.17384338378906 67.35012817382812 C 76.67438507080078 66.29248046875 78.92031860351562 64.77816772460938 80.8492431640625 62.84923553466797 C 82.77816772460938 60.92031860351562 84.29248046875 58.67438888549805 85.35012817382812 56.17383575439453 C 86.44490814208984 53.58549499511719 87 50.83542633056641 87 48 L 87 22 C 87 19.16457748413086 86.44490814208984 16.41449356079102 85.35012817382812 13.82615280151367 C 84.29248046875 11.32561111450195 82.77816772460938 9.079681396484375 80.8492431640625 7.150753021240234 C 78.92031860351562 5.221832275390625 76.67438507080078 3.70751953125 74.17384338378906 2.649871826171875 C 71.58551025390625 1.555091857910156 68.83542633056641 1 66 1 L 22 1 M 22 0 L 66 0 C 78.1502685546875 0 88 9.849727630615234 88 22 L 88 48 C 88 60.15026092529297 78.1502685546875 70 66 70 L 22 70 C 18.07546234130859 70 14.39093780517578 68.97238922119141 10.93868255615234 67.02118682861328 C 4.514427185058594 63.39706039428711 0 56.22573089599609 0 48 L 0 22 C 0 9.849727630615234 9.8497314453125 0 22 0 Z" stroke="none" fill="#0c5406"/>
      </g>
    </g>
    <path id="Icon_awesome-chart-bar" data-name="Icon awesome-chart-bar" d="M35.533,31.833h4.1A1.47,1.47,0,0,0,41,30.467V16.117a1.47,1.47,0,0,0-1.367-1.367h-4.1a1.47,1.47,0,0,0-1.367,1.367v14.35a1.47,1.47,0,0,0,1.367,1.367Zm10.25,0h4.1a1.47,1.47,0,0,0,1.367-1.367V5.867A1.47,1.47,0,0,0,49.883,4.5h-4.1a1.47,1.47,0,0,0-1.367,1.367v24.6A1.47,1.47,0,0,0,45.783,31.833Zm-30.75,0h4.1A1.47,1.47,0,0,0,20.5,30.467V22.95a1.47,1.47,0,0,0-1.367-1.367h-4.1a1.47,1.47,0,0,0-1.367,1.367v7.517a1.47,1.47,0,0,0,1.367,1.367Zm10.25,0h4.1a1.47,1.47,0,0,0,1.367-1.367V9.283a1.47,1.47,0,0,0-1.367-1.367h-4.1a1.47,1.47,0,0,0-1.367,1.367V30.467A1.47,1.47,0,0,0,25.283,31.833Zm27.675,6.833H6.833V6.208A1.708,1.708,0,0,0,5.125,4.5H1.708A1.708,1.708,0,0,0,0,6.208V42.083A3.417,3.417,0,0,0,3.417,45.5H52.958a1.708,1.708,0,0,0,1.708-1.708V40.375A1.708,1.708,0,0,0,52.958,38.667Z" transform="translate(621.668 785.5)" fill="#ebf2fc" opacity="0.86"/>
  </g>
</svg>
