<svg xmlns="http://www.w3.org/2000/svg" xmlns:xlink="http://www.w3.org/1999/xlink" width="999" height="206" viewBox="0 0 999 206">
  <defs>
    <clipPath id="clip-Barnksforte_Logo">
      <rect width="999" height="206"/>
    </clipPath>
  </defs>
  <g id="Barnksforte_Logo" data-name="Barnksforte Logo" clip-path="url(#clip-Barnksforte_Logo)">
    <g id="Group_5994" data-name="Group 5994" transform="translate(-19.559 -86.846)">
      <path id="Path_2947" data-name="Path 2947" d="M100.54,137.946a12.387,12.387,0,0,1-4,9.345,13,13,0,0,1-9.579,3.89H38.427V124.772H86.956a13.186,13.186,0,0,1,9.579,3.829A12.756,12.756,0,0,1,100.54,137.946Z" transform="translate(31.271 72.564)" fill="#3b3239" fill-rule="evenodd"/>
      <path id="Path_2948" data-name="Path 2948" d="M253.068,110.32H43.35A11.152,11.152,0,0,0,32.2,121.465V258.226A11.152,11.152,0,0,0,43.35,269.371H253.068a11.147,11.147,0,0,0,11.145-11.145V121.465A11.147,11.147,0,0,0,253.068,110.32ZM146.147,210.51a26.115,26.115,0,0,1-8.122,19.273,27.5,27.5,0,0,1-19.8,7.954H62.5a6.068,6.068,0,0,1-2.728-.524,4.023,4.023,0,0,1-1.222-.578H58.5l-1.048-.873a7.038,7.038,0,0,1-2.144-5.052V189.442a6.349,6.349,0,0,1,2.029-4.01,6.838,6.838,0,0,1,5.106-2.143h55.785a13.167,13.167,0,0,0,9.579-3.835,12.906,12.906,0,0,0,0-18.689,13.049,13.049,0,0,0-9.579-3.944H62.443a7.163,7.163,0,0,1-5.106-1.975,6.643,6.643,0,0,1-2.089-4.937,6.537,6.537,0,0,1,2.089-4.931,7.051,7.051,0,0,1,5.106-2.149h55.785a27.313,27.313,0,0,1,19.8,8.014,26.941,26.941,0,0,1-1.048,39.528A25.516,25.516,0,0,1,146.147,210.51Zm92.934-55.664a7.074,7.074,0,0,1-5.052,2.029H204.484V230.71A6.658,6.658,0,0,1,202.4,235.7a7.355,7.355,0,0,1-10.157,0,6.658,6.658,0,0,1-2.089-4.991V156.875H157.466a7.2,7.2,0,0,1-5.106-2.029,6.621,6.621,0,0,1-2.089-4.937,6.515,6.515,0,0,1,2.089-4.931,6.985,6.985,0,0,1,5.106-2.089h76.563a6.863,6.863,0,0,1,5.052,2.089,6.537,6.537,0,0,1,2.089,4.931A6.643,6.643,0,0,1,239.081,154.845Z" transform="translate(0 0)" fill="#3b3239" fill-rule="evenodd"/>
      <path id="Path_2949" data-name="Path 2949" d="M142.708,122.749a6.643,6.643,0,0,1-2.089,4.937,7.074,7.074,0,0,1-5.052,2.029H106.022v73.836a6.658,6.658,0,0,1-2.089,4.991,7.355,7.355,0,0,1-10.157,0,6.658,6.658,0,0,1-2.089-4.991V129.716H59a7.2,7.2,0,0,1-5.106-2.029,6.621,6.621,0,0,1-2.089-4.937,6.515,6.515,0,0,1,2.089-4.931A6.985,6.985,0,0,1,59,115.729h76.563a6.863,6.863,0,0,1,5.052,2.089A6.537,6.537,0,0,1,142.708,122.749Z" transform="translate(98.462 27.159)" fill="#3cc3f2" fill-rule="evenodd"/>
      <path id="Path_2950" data-name="Path 2950" d="M126.926,142.946a26.059,26.059,0,0,0-8.122-19.213,27.313,27.313,0,0,0-19.8-8.014H43.222a7.051,7.051,0,0,0-5.106,2.149,6.537,6.537,0,0,0-2.089,4.931,6.643,6.643,0,0,0,2.089,4.937,7.163,7.163,0,0,0,5.106,1.975H99.007a13.049,13.049,0,0,1,9.579,3.944,12.906,12.906,0,0,1,0,18.689,13.167,13.167,0,0,1-9.579,3.835H43.222a6.838,6.838,0,0,0-5.106,2.143,6.349,6.349,0,0,0-2.029,4.01V203.6a7.038,7.038,0,0,0,2.144,5.052l1.048.873h.054a4.023,4.023,0,0,0,1.222.578,6.068,6.068,0,0,0,2.728.524H99.007a27.5,27.5,0,0,0,19.8-7.954,26.115,26.115,0,0,0,8.122-19.273,25.516,25.516,0,0,0-9.17-20.14A25.951,25.951,0,0,0,126.926,142.946Zm-18.34,49.8a13,13,0,0,1-9.579,3.89H50.477V170.227H99.007a13.186,13.186,0,0,1,9.579,3.829,12.756,12.756,0,0,1,4,9.345A12.387,12.387,0,0,1,108.586,192.746Z" transform="translate(19.22 27.109)" fill="#3cc3f2" fill-rule="evenodd"/>
      <rect id="Rectangle_16809" data-name="Rectangle 16809" width="730.761" height="8.879" rx="0.737" transform="translate(275.158 195.497)" fill="#3cc3f2"/>
      <g id="Group_5992" data-name="Group 5992" transform="translate(279.699 119.773)">
        <path id="Path_2951" data-name="Path 2951" d="M106.637,171H73.3V156.9h5.13V126.188H73.3v-14.1h36a83.88,83.88,0,0,1,16.4,1.228,16.089,16.089,0,0,1,8.977,5.04,13.475,13.475,0,0,1,3.263,8.977,10.525,10.525,0,0,1-3.095,7.966,17.214,17.214,0,0,1-7.707,4.233,19.655,19.655,0,0,1,9.567,5.762,13.4,13.4,0,0,1,3.39,8.935,14.364,14.364,0,0,1-3.811,10.079,18.537,18.537,0,0,1-10.458,5.377Q119.26,171,106.637,171Zm-5.419-45.989v10.753h5.04q5.121,0,6.732-1.481a5.188,5.188,0,0,0,1.529-3.9,5.6,5.6,0,0,0-1.4-3.727q-1.391-1.653-7.665-1.65Zm0,21.471v11.6h5.124q4.913,0,7.075-1.27c1.409-.849,2.113-2.342,2.113-4.492a5.2,5.2,0,0,0-1.9-4.443q-1.906-1.4-7.37-1.4Z" transform="translate(-73.305 -110.901)" fill="#fff"/>
        <path id="Path_2952" data-name="Path 2952" d="M107.825,171H84.488V156.9H88.98l11.055-30.707H95.29v-14.1h42.352v14.1H132.9L144.162,156.9h4.323V171H117.736V158.082H122.9l-2.246-7.412H105.58L103,158.082h4.829Zm5.545-43.959-5.545,16.3h10.549Z" transform="translate(-17.155 -110.901)" fill="#fff"/>
        <path id="Path_2953" data-name="Path 2953" d="M127.564,171H95.544V156.9h4.787V126.188H95.544v-14.1h32.02q4.326,0,8.008.151t6.31.421a47.6,47.6,0,0,1,4.829.741,17.848,17.848,0,0,1,10.037,5.72,15.641,15.641,0,0,1,3.9,10.585,15.19,15.19,0,0,1-2.372,8.3,14.241,14.241,0,0,1-6.226,5.419L160.18,156.9h4.233V171H143.194l-12.831-24.054H123.12V156.9h4.443Zm-4.443-45.989v11.217h2.541a49.658,49.658,0,0,0,6.774-.3,5.492,5.492,0,0,0,3.221-1.692,4.874,4.874,0,0,0,1.313-3.6A5.014,5.014,0,0,0,135.656,127a5.551,5.551,0,0,0-3.348-1.692,54.824,54.824,0,0,0-7.117-.295Z" transform="translate(38.357 -110.901)" fill="#fff"/>
        <path id="Path_2954" data-name="Path 2954" d="M131.511,171H107.325V156.9h5.166V126.188h-5.166v-14.1h27.913l21.429,30.792v-16.69H151.88v-14.1h23.759v14.1h-5.124v45.573h-19.4L126.3,136.141V156.9h5.208Z" transform="translate(97.51 -110.901)" fill="#fff"/>
        <path id="Path_2955" data-name="Path 2955" d="M151.5,171H119.562V156.9h4.492V126.188h-4.618v-14.1H151.5v14.1h-4.66V156.9h4.66Zm36.632,0h-30.49V156.9h2.836L147.56,140.121l14.992-13.933h-4.787v-14.1h29.015v14.1H182.2l-12.024,11.181L185.21,156.9h2.92Z" transform="translate(158.319 -110.901)" fill="#fff"/>
        <path id="Path_2956" data-name="Path 2956" d="M145.038,171.634H131.78V152.746h13.258q2.366,7.713,8.935,7.707,4.742,0,4.745-3.811a4.077,4.077,0,0,0-1.65-3.306,39.275,39.275,0,0,0-7.5-3.974,70.656,70.656,0,0,1-10.585-5.636,18.207,18.207,0,0,1-5.419-5.973,15.962,15.962,0,0,1-2.246-8.339q0-8.219,5.335-12.837A19.158,19.158,0,0,1,149.7,111.96a20.038,20.038,0,0,1,13.126,4.407v-3.643h13.343V129.5H162.993q-2.411-6.954-8.556-6.948-4.317,0-4.317,3.685a3.081,3.081,0,0,0,1.228,2.667,63.765,63.765,0,0,0,7.665,4.106,117.611,117.611,0,0,1,11.6,6.31,15.569,15.569,0,0,1,3.029,2.734,19.661,19.661,0,0,1,2.565,3.625,18.019,18.019,0,0,1,2.33,8.977,16.476,16.476,0,0,1-5.509,12.536,19.391,19.391,0,0,1-13.891,5.208,23.319,23.319,0,0,1-14.1-4.618Z" transform="translate(217.969 -111.538)" fill="#fff"/>
        <path id="Path_2957" data-name="Path 2957" d="M175.727,171H139.938V156.9h6.184V126.188h-6.394v-14.1h58.024v19.394H182.079v-5.292H168.9v9.062h10.164v11.988H168.9V156.9h6.822Z" transform="translate(260.201 -110.901)" fill="#fff"/>
        <path id="Path_2958" data-name="Path 2958" d="M149.939,142.386a30.458,30.458,0,0,1,3.6-14.276,29.866,29.866,0,0,1,11.055-11.56,27.58,27.58,0,0,1,5.485-2.631,36.816,36.816,0,0,1,6.117-1.5,44.239,44.239,0,0,1,6.942-.53q15.841,0,24.524,9.272a32.462,32.462,0,0,1,6.521,9.911,30.089,30.089,0,0,1-6.774,32.742q-8.977,9.1-24.271,9.1-14.776,0-23.97-8.556Q149.939,155.855,149.939,142.386Zm25.577,0q0,9.817,1.909,13.252a6.037,6.037,0,0,0,5.714,3.474,6.222,6.222,0,0,0,5.762-3.348q1.906-3.387,1.9-13.379,0-9.7-1.86-13.216a6.568,6.568,0,0,0-11.518-.126Q175.51,132.386,175.516,142.386Z" transform="translate(311.475 -111.89)" fill="#fff"/>
        <path id="Path_2959" data-name="Path 2959" d="M193.979,171h-32.02V156.9h4.787V126.188h-4.787v-14.1h32.02q4.317,0,8,.151t6.31.421a47.328,47.328,0,0,1,4.829.741,17.827,17.827,0,0,1,10.037,5.72,15.64,15.64,0,0,1,3.9,10.585,15.139,15.139,0,0,1-2.372,8.3,14.242,14.242,0,0,1-6.226,5.419l8.134,13.469h4.233V171H209.6l-12.837-24.054h-7.237V156.9h4.45Zm-4.45-45.989v11.217h2.541a49.6,49.6,0,0,0,6.774-.3,5.492,5.492,0,0,0,3.221-1.692,4.873,4.873,0,0,0,1.313-3.6A5.014,5.014,0,0,0,202.065,127a5.551,5.551,0,0,0-3.348-1.692,54.7,54.7,0,0,0-7.117-.295Z" transform="translate(371.828 -110.901)" fill="#fff"/>
        <path id="Path_2960" data-name="Path 2960" d="M219.289,171H186.209V156.9h5.082V126.188h-6.78v10.717H173.457V112.087h58.41v24.819H220.812V126.188h-6.732V156.9h5.208Z" transform="translate(429.56 -110.901)" fill="#fff"/>
        <path id="Path_2961" data-name="Path 2961" d="M240.278,171h-56.2V156.9h4.576V126.188h-4.66v-14.1h56.284v18.846H224.822v-4.745H211.438v9.062h11.645v11.988H211.438V156.9h13.385v-4.745h15.456Z" transform="translate(482.466 -110.901)" fill="#fff"/>
      </g>
      <g id="Group_5993" data-name="Group 5993" transform="translate(280.734 224.521)">
        <path id="Path_2962" data-name="Path 2962" d="M84.14,137.2H73.477v-7.815h30.015V137.2H92.871V164.46H84.14Z" transform="translate(-73.477 -128.78)" fill="#fff"/>
        <path id="Path_2963" data-name="Path 2963" d="M88.6,137.2v5.461h17.154v7.809H88.6v6.178h18.888v7.809H79.87V129.388h27.618V137.2Z" transform="translate(-41.378 -128.78)" fill="#fff"/>
        <path id="Path_2964" data-name="Path 2964" d="M85.764,147.4c0-9.85,8.628-18.117,18.84-18.117a19.225,19.225,0,0,1,13.933,6.021l-6.382,5.666a9.784,9.784,0,0,0-7.55-3.775,10.238,10.238,0,0,0,0,20.465,9.872,9.872,0,0,0,7.6-3.775l6.328,5.618a19.064,19.064,0,0,1-13.933,6.075C94.392,165.582,85.764,157.255,85.764,147.4Z" transform="translate(-11.784 -129.287)" fill="#fff"/>
        <path id="Path_2965" data-name="Path 2965" d="M124.368,129.388V164.46h-8.724V150.474H101.3V164.46h-8.73V129.388h8.73v13.276h14.348V129.388Z" transform="translate(22.364 -128.78)" fill="#fff"/>
        <path id="Path_2966" data-name="Path 2966" d="M99.595,129.388h8.73l15.263,20.73v-20.73h8.73V164.46h-8.73l-15.263-20.724V164.46h-8.73Z" transform="translate(57.662 -128.78)" fill="#fff"/>
        <path id="Path_2967" data-name="Path 2967" d="M106.557,147.4c0-9.85,8.628-18.117,18.84-18.117,10.26,0,18.888,8.267,18.888,18.117s-8.628,18.177-18.888,18.177C115.185,165.582,106.557,157.255,106.557,147.4Zm28.744,0a9.911,9.911,0,1,0-9.9,10.26A10.215,10.215,0,0,0,135.3,147.4Z" transform="translate(92.618 -129.287)" fill="#fff"/>
        <path id="Path_2968" data-name="Path 2968" d="M139.869,156.651v7.809H114.292V129.388h8.676v27.263Z" transform="translate(131.456 -128.78)" fill="#fff"/>
        <path id="Path_2969" data-name="Path 2969" d="M119.718,147.4c0-9.85,8.634-18.117,18.846-18.117,10.254,0,18.882,8.267,18.882,18.117s-8.628,18.177-18.882,18.177C128.352,165.582,119.718,157.255,119.718,147.4Zm28.744,0a9.908,9.908,0,1,0-9.9,10.26A10.21,10.21,0,0,0,148.462,147.4Z" transform="translate(158.7 -129.287)" fill="#fff"/>
        <path id="Path_2970" data-name="Path 2970" d="M144.656,144.857h15.98v14.649a19.846,19.846,0,0,1-14.342,6.075c-10.362,0-19.044-8.327-19.044-18.177s8.682-18.117,19.044-18.117a19.989,19.989,0,0,1,14.342,6.021l-6.382,5.666a10.2,10.2,0,1,0-7.96,16.69,10.646,10.646,0,0,0,5.87-1.836v-4.389h-7.508Z" transform="translate(196.513 -129.287)" fill="#fff"/>
        <path id="Path_2971" data-name="Path 2971" d="M134.423,129.388h8.73V164.46h-8.73Z" transform="translate(232.534 -128.78)" fill="#fff"/>
        <path id="Path_2972" data-name="Path 2972" d="M146.336,137.2v5.461H163.49v7.809H146.336v6.178H165.23v7.809H137.612V129.388H165.23V137.2Z" transform="translate(248.546 -128.78)" fill="#fff"/>
        <path id="Path_2973" data-name="Path 2973" d="M143.319,159.711l4.9-5.877a17.9,17.9,0,0,0,11.536,4.444c3.269,0,4.955-1.325,4.955-3.215,0-2.089-1.638-2.553-6.743-3.775-7.5-1.686-13.066-3.727-13.066-10.772,0-6.737,5.413-11.229,13.427-11.229a21.2,21.2,0,0,1,14.192,4.793l-4.444,6.232a16.8,16.8,0,0,0-10-3.727c-2.812,0-4.4,1.325-4.4,3.059,0,2.149,1.686,2.866,6.894,3.986,7.863,1.686,12.915,3.932,12.915,10.513,0,7.051-5.359,11.44-14.035,11.44A23.753,23.753,0,0,1,143.319,159.711Z" transform="translate(277.201 -129.287)" fill="#fff"/>
        <path id="Path_2974" data-name="Path 2974" d="M181.294,156.651v7.809H155.717V129.388h8.676v27.263Z" transform="translate(339.451 -128.78)" fill="#fff"/>
        <path id="Path_2975" data-name="Path 2975" d="M161.39,129.388h8.73V164.46h-8.73Z" transform="translate(367.936 -128.78)" fill="#fff"/>
        <path id="Path_2976" data-name="Path 2976" d="M164.6,129.388h8.724l10.109,18.274,10.109-18.274h8.731V164.46h-8.731V144.139l-10.109,18.28-10.109-18.28V164.46H164.6Z" transform="translate(384.073 -128.78)" fill="#fff"/>
        <path id="Path_2977" data-name="Path 2977" d="M172.635,129.388h8.73V164.46h-8.73Z" transform="translate(424.397 -128.78)" fill="#fff"/>
        <path id="Path_2978" data-name="Path 2978" d="M186.178,137.2H175.509v-7.815H205.53V137.2H194.915V164.46h-8.736Z" transform="translate(438.827 -128.78)" fill="#fff"/>
        <path id="Path_2979" data-name="Path 2979" d="M190.633,137.2v5.461h17.154v7.809H190.633v6.178h18.888v7.809H181.9V129.388h27.618V137.2Z" transform="translate(470.932 -128.78)" fill="#fff"/>
        <path id="Path_2980" data-name="Path 2980" d="M188.043,129.388h12.813c12.048,0,20.526,7.249,20.526,17.509S212.9,164.46,200.856,164.46H188.043Zm14.143,27.161c5.973,0,10.26-4.034,10.26-9.652s-4.287-9.6-10.26-9.6h-5.413v19.249Z" transform="translate(501.761 -128.78)" fill="#fff"/>
      </g>
    </g>
  </g>
</svg>
